<?xml version="1.0"?>
<svg version="1.1" xmlns="http://www.w3.org/2000/svg" width="400px" height="200px" style="border: dashed 2px #aaa"><path fill="#ffffff" d="M2.482421875,104.6044921875l0-3.0830078125l0-3.1630859375q0.0400390625-3.203125,0.26025390625-6.14599609375t0.62060546875-4.90478515625q0.240234375-1.0810546875,1.44140625-1.3212890625t2.08203125-0.240234375q1.6416015625,0,2.42236328125,0.400390625t1.02099609375,1.14111328125t0.2001953125,1.76171875t-0.0400390625,2.34228515625q0,1.8818359375-0.080078125,5.2451171875t-0.1201171875,7.447265625l0,2.0419921875q0,3.0830078125,0.080078125,6.3662109375q0.1201171875,4.404296875,0.46044921875,8.42822265625t0.94091796875,7.2470703125t1.681640625,4.94482421875q1.7216796875-1.5615234375,3.443359375-4.38427734375t3.283203125-6.34619140625t2.98291015625-7.42724609375t2.58251953125-7.62744140625t1.98193359375-7.0068359375t1.22119140625-5.5654296875q0.640625-3.283203125,0.86083984375-6.6865234375t0.22021484375-7.5673828125q1.2412109375-1.4814453125,1.921875-1.86181640625t2.162109375-0.38037109375q0.720703125,0,1.46142578125,0.1201171875t1.42138671875,0.560546875l0.560546875,0.880859375l0,1.0009765625q0,7.287109375-0.70068359375,14.79443359375t-1.4814453125,15.0947265625t-1.4814453125,15.21484375t-0.70068359375,15.15478515625q0,1.1611328125,0.10009765625,2.46240234375t0.42041015625,2.46240234375l-0.16015625,0.48046875q-0.560546875,0.9208984375-1.841796875,1.1611328125t-2.2021484375,0.240234375q-1.9619140625,0-2.94287109375-0.58056640625t-1.30126953125-1.6015625t-0.2802734375-2.3623046875t0.0400390625-2.90283203125q0-5.4052734375,0.48046875-10.99072265625t1.1611328125-10.99072265625q-0.640625,1.8818359375-1.521484375,4.54443359375t-2.06201171875,5.3251953125t-2.74267578125,4.884765625t-3.443359375,3.18310546875l0.080078125-0.080078125l-0.3203125,0.16015625l0.080078125,0q-1.1611328125,0.640625-2.14208984375,0.86083984375t-2.30224609375,0.22021484375q-2.642578125,0-4.38427734375-1.5615234375t-2.82275390625-4.02392578125t-1.6015625-5.525390625t-0.74072265625-6.14599609375t-0.22021484375-5.86572265625l0-4.58447265625q0-2.2021484375-0.0400390625-5.2451171875z M16.736328125,136.4755859375q0.080078125,0,0.080078125-0.080078125l0.080078125,0q-0.080078125,0.080078125-0.16015625,0.080078125z M45.751435546875,114.8544921875q0-1.6416015625,0.58056640625-2.7626953125t2.46240234375-1.12109375q0.720703125,0,1.8017578125,0.22021484375t1.2412109375,1.10107421875q0.400390625,2.3623046875,0.4404296875,5.125t0.2802734375,5.205078125q0.9208984375-1.8017578125,2.3623046875-3.8837890625t3.283203125-3.84375t4.00390625-2.9228515625t4.404296875-1.1611328125q0.16015625,0,0.6005859375,0.1201171875t0.82080078125,0.34033203125t0.46044921875,0.50048828125t-0.4404296875,0.5205078125q-0.16015625,0.48046875-0.6806640625,0.58056640625t-0.9208984375,0.10009765625q-0.240234375,0-0.7607421875-0.2001953125q-2.962890625,1.5615234375-5.044921875,4.244140625t-3.4033203125,5.94580078125t-1.921875,6.88671875t-0.6005859375,7.06689453125q0,1.7216796875-0.78076171875,2.08203125t-2.50244140625,0.3603515625q-0.9208984375,0-1.94189453125-0.2001953125t-1.42138671875-1.28125q-0.720703125-2.2822265625-1.18115234375-5.2451171875t-0.70068359375-6.10595703125t-0.34033203125-6.18603515625t-0.10009765625-5.4853515625z M74.20599609375,114.4140625q0-2.802734375,0.26025390625-7.287109375t0.62060546875-9.2490234375t0.90087890625-9.02880859375t1.18115234375-6.54638671875q0.240234375-1.0009765625,1.14111328125-1.201171875t1.82177734375-0.2001953125q1.2412109375,0,2.14208984375,0.4404296875t0.90087890625,1.921875q0,7.287109375-0.90087890625,14.59423828125t-0.98095703125,14.59423828125q1.2412109375-1.8818359375,3.203125-2.82275390625t4.1640625-0.94091796875q3.04296875,0,5.2451171875,1.2412109375t3.5634765625,3.203125t2.02197265625,4.54443359375t0.66064453125,5.26513671875q0,1.4814453125-0.30029296875,3.70361328125t-0.90087890625,4.6845703125t-1.521484375,4.884765625t-2.18212890625,4.34423828125t-2.90283203125,3.10302734375t-3.603515625,1.18115234375q-0.400390625,0-1.06103515625-0.1201171875t-1.3212890625-0.3603515625t-1.10107421875-0.62060546875t-0.4404296875-0.94091796875q0-0.640625,0.78076171875-0.90087890625t1.26123046875-0.26025390625q1.8017578125-0.80078125,3.203125-3.34326171875t2.34228515625-5.58544921875t1.42138671875-6.02587890625t0.48046875-4.86474609375q0-1.0810546875-0.3203125-2.8828125t-0.98095703125-3.5634765625t-1.8017578125-3.04296875t-2.70263671875-1.28125q-1.8818359375,0-3.0029296875,1.94189453125t-1.76171875,4.5244140625t-0.86083984375,5.3251953125t-0.22021484375,4.30419921875q0,1.0009765625,0.34033203125,1.98193359375t0.78076171875,1.9619140625t0.78076171875,2.001953125t0.34033203125,2.02197265625q0,0.48046875-0.42041015625,0.80078125t-0.98095703125,0.5205078125t-1.18115234375,0.26025390625t-0.94091796875,0.06005859375q-2.2822265625,0-3.1630859375-1.0810546875t-1.521484375-3.04296875q-1.4013671875-4.4443359375-1.94189453125-9.02880859375t-0.54052734375-9.18896484375z M108.34610351563,126.0654296875q0-2.72265625,0.74072265625-5.2451171875t2.22216796875-4.50439453125t3.70361328125-3.1630859375t5.14501953125-1.18115234375q1.8017578125,0,3.98388671875,0.54052734375t4.10400390625,1.6015625t3.203125,2.70263671875t1.28125,3.763671875q0,1.0009765625-0.34033203125,1.521484375t-1.38134765625,0.5205078125l-0.4404296875-0.080078125q1.1611328125,3.123046875,2.001953125,6.40625t1.6416015625,6.56640625q0.3203125,0.640625,0.48046875,1.14111328125t0.16015625,0.98095703125q0,0.640625-0.3603515625,1.06103515625t-0.94091796875,0.62060546875t-1.201171875,0.2802734375t-1.10107421875,0.080078125q-1.7216796875,0-2.58251953125-0.6005859375t-1.2412109375-1.6416015625t-0.46044921875-2.34228515625t-0.3203125-2.62255859375q-0.48046875,1.5615234375-1.26123046875,3.04296875t-1.841796875,2.66259765625t-2.50244140625,1.8818359375t-3.2431640625,0.70068359375q-2.642578125,0-4.4443359375-1.521484375t-2.90283203125-3.74365234375t-1.6015625-4.74462890625t-0.50048828125-4.6845703125z M114.03165039063,125.5048828125q0,1.4814453125,0.2001953125,3.123046875t0.66064453125,3.2431640625t1.18115234375,3.02294921875t1.8017578125,2.50244140625q1.9619140625-2.1220703125,2.90283203125-5.1650390625t1.681640625-5.86572265625t1.681640625-4.8447265625t2.90283203125-2.02197265625q1.2412109375,0,2.08203125,0.4404296875q-0.400390625-1.0009765625-1.3212890625-1.94189453125t-2.06201171875-1.7216796875t-2.3623046875-1.28125t-2.30224609375-0.50048828125q-0.3203125,0-0.74072265625,0.10009765625t-0.66064453125,0.02001953125q-1.6416015625,0.48046875-2.70263671875,1.66162109375t-1.7216796875,2.78271484375t-0.94091796875,3.283203125t-0.2802734375,3.1630859375z M143.086796875,126.265625l0-1.1611328125q0-1.44140625,0.080078125-2.72265625q0.080078125-1.8017578125,0.080078125-2.962890625q0-0.640625,0.080078125-1.46142578125t0.400390625-1.30126953125q0.400390625-0.400390625,0.94091796875-0.82080078125t1.18115234375-0.42041015625q2.0419921875,0,3.203125,0.46044921875t1.2412109375,1.90185546875l0.16015625,1.2412109375q0.720703125-1.7216796875,1.921875-4.26416015625t2.78271484375-4.8447265625t3.5634765625-3.923828125t4.18408203125-1.62158203125q2.0419921875,0,3.36328125,1.921875t2.10205078125,4.90478515625t1.10107421875,6.646484375t0.4404296875,7.18701171875t0.16015625,6.42626953125t0.2802734375,4.38427734375q0.16015625,1.2412109375,0.54052734375,2.62255859375t0.38037109375,2.54248046875q0,0.3203125-0.46044921875,0.62060546875t-0.98095703125,0.50048828125t-1.06103515625,0.3203125t-0.78076171875,0.1201171875q-1.5615234375,0-2.22216796875-2.34228515625t-0.82080078125-5.86572265625t-0.16015625-7.62744140625t-0.2802734375-7.62744140625t-1.14111328125-5.86572265625t-2.74267578125-2.42236328125q-1.7216796875,0-3.5634765625,2.22216796875t-3.1630859375,5.90576171875q-1.28125,3.68359375-1.76171875,8.3681640625q-0.16015625,1.4814453125-0.16015625,2.962890625q0,3.2431640625,0.6806640625,6.486328125q0.080078125,0.560546875-0.46044921875,0.8408203125t-1.34130859375,0.4404296875t-1.62158203125,0.2001953125t-1.26123046875,0.0400390625q-1.5615234375,0-2.50244140625-1.10107421875t-1.46142578125-2.82275390625t-0.70068359375-3.86376953125t-0.22021484375-4.22412109375z M195.15119140625,134.513671875q-0.0400390625-1.201171875-0.0400390625-2.40234375q0-3.763671875,0.400390625-7.5673828125q0.48046875-5.044921875,0.640625-9.9296875q0.16015625-5.7255859375,0.48046875-11.8916015625q0.2001953125-3.36328125,0.2001953125-6.646484375q0-2.6826171875-0.1201171875-5.3251953125q0.400390625-0.9208984375,1.06103515625-1.2412109375t1.66162109375-0.3203125q0.48046875,0,1.02099609375,0.080078125t0.94091796875,0.400390625q0.560546875,0.080078125,1.38134765625,0.16015625t1.26123046875,0.48046875q0.16015625,0.240234375,0.82080078125,1.6416015625t1.5615234375,3.4033203125t1.8818359375,4.34423828125t1.8818359375,4.4443359375t1.5615234375,3.70361328125t0.82080078125,2.001953125q3.763671875-6.806640625,7.3671875-13.99365234375t7.8876953125-13.55322265625q0.400390625-0.560546875,1.38134765625-0.82080078125t1.62158203125-0.26025390625q1.7216796875,0,2.50244140625,0.82080078125t1.02099609375,2.10205078125q0.16015625,0.80078125,0.2001953125,1.7216796875q0.0400390625,0.48046875-0.0400390625,1.0009765625q-0.16015625,1.4814453125-0.16015625,2.802734375q0,9.3291015625-0.640625,18.51806640625t-1.1611328125,18.55810546875q-0.080078125,1.921875-0.080078125,4.00390625t0.080078125,4.32421875q0.0400390625,0.80078125,0.0400390625,1.5615234375q0,3.5234375-0.6005859375,6.56640625q-0.560546875,0.9208984375-1.841796875,1.1611328125t-2.162109375,0.240234375q-1.8818359375,0-3.603515625-0.880859375l-0.4404296875-0.5205078125l-0.16015625-0.640625t-0.080078125-0.640625q0-5.8056640625,0.42041015625-11.69140625t0.94091796875-11.75146484375t1.10107421875-11.71142578125t0.98095703125-11.69140625q-2.3623046875,3.923828125-4.58447265625,7.98779296875t-4.18408203125,8.26806640625q-0.720703125,1.6416015625-1.38134765625,3.5234375t-1.58154296875,3.36328125q-0.48046875,0.720703125-1.62158203125,0.880859375t-1.98193359375,0.16015625q-0.80078125,0-1.66162109375-0.2802734375t-1.18115234375-1.201171875q-1.4814453125-4.5244140625-3.1630859375-8.8486328125t-3.4033203125-8.7685546875q0,2.962890625,0.1201171875,7.66748046875t0.1201171875,9.74951171875t-0.16015625,9.6494140625t-0.7607421875,7.287109375q-0.16015625,1.0009765625-1.30126953125,1.2412109375t-1.98193359375,0.240234375q-0.640625,0-1.22119140625-0.080078125t-1.14111328125-0.3203125z M241.90360351563,126.826171875q0-2.2822265625,0.58056640625-4.70458984375t1.841796875-4.3642578125t3.18310546875-3.1630859375t4.64453125-1.22119140625q2.0419921875,0,4.30419921875,0.70068359375t4.14404296875,2.001953125t3.06298828125,3.18310546875t1.18115234375,4.2041015625q0,2.802734375-1.02099609375,5.3251953125t-2.86279296875,4.50439453125t-4.30419921875,3.123046875t-5.34521484375,1.14111328125q-2.3623046875,0-4.1240234375-0.86083984375t-2.94287109375-2.30224609375t-1.76171875-3.4033203125t-0.58056640625-4.1640625z M247.78934570313,126.74609375q0,0.720703125,0.22021484375,2.1220703125t0.66064453125,2.74267578125t1.14111328125,2.322265625t1.70166015625,0.90087890625q2.1220703125-0.240234375,3.50341796875-1.38134765625t2.2421875-2.78271484375t1.201171875-3.5634765625t0.34033203125-3.6435546875q0-2.2021484375-0.86083984375-3.68359375t-2.82275390625-2.40234375q0,0.080078125,0.080078125,0.080078125t0.080078125-0.080078125l-1.0009765625-0.240234375q-0.400390625-0.16015625-0.98095703125-0.3603515625t-1.14111328125-0.880859375q-1.5615234375,0.560546875-2.42236328125,1.44140625t-1.30126953125,2.14208984375t-0.54052734375,3.02294921875t-0.10009765625,4.244140625z M272.2800390625,126.265625l0-1.1611328125q0-1.44140625,0.080078125-2.72265625q0.080078125-1.8017578125,0.080078125-2.962890625q0-0.640625,0.080078125-1.46142578125t0.400390625-1.30126953125q0.400390625-0.400390625,0.94091796875-0.82080078125t1.18115234375-0.42041015625q2.0419921875,0,3.203125,0.46044921875t1.2412109375,1.90185546875l0.16015625,1.2412109375q0.720703125-1.7216796875,1.921875-4.26416015625t2.78271484375-4.8447265625t3.5634765625-3.923828125t4.18408203125-1.62158203125q2.0419921875,0,3.36328125,1.921875t2.10205078125,4.90478515625t1.10107421875,6.646484375t0.4404296875,7.18701171875t0.16015625,6.42626953125t0.2802734375,4.38427734375q0.16015625,1.2412109375,0.54052734375,2.62255859375t0.38037109375,2.54248046875q0,0.3203125-0.46044921875,0.62060546875t-0.98095703125,0.50048828125t-1.06103515625,0.3203125t-0.78076171875,0.1201171875q-1.5615234375,0-2.22216796875-2.34228515625t-0.82080078125-5.86572265625t-0.16015625-7.62744140625t-0.2802734375-7.62744140625t-1.14111328125-5.86572265625t-2.74267578125-2.42236328125q-1.7216796875,0-3.5634765625,2.22216796875t-3.1630859375,5.90576171875q-1.28125,3.68359375-1.76171875,8.3681640625q-0.16015625,1.4814453125-0.16015625,2.962890625q0,3.2431640625,0.6806640625,6.486328125q0.080078125,0.560546875-0.46044921875,0.8408203125t-1.34130859375,0.4404296875t-1.62158203125,0.2001953125t-1.26123046875,0.0400390625q-1.5615234375,0-2.50244140625-1.10107421875t-1.46142578125-2.82275390625t-0.70068359375-3.86376953125t-0.22021484375-4.22412109375z M308.66233398437,142.3212890625l0.8408203125-1.0009765625q-0.16015625-6.7265625-0.3603515625-13.4130859375t-0.2001953125-13.29296875q0-8.2080078125,0.98095703125-15.87548828125t1.94189453125-15.71533203125q0.080078125-0.48046875,0.46044921875-0.78076171875t0.94091796875-0.50048828125t1.14111328125-0.2802734375t1.06103515625-0.080078125q0.640625,0,1.6015625,0.240234375t1.921875,1.4013671875q0,0.400390625,0.06005859375,0.70068359375t0.06005859375,0.70068359375q0,3.04296875-0.82080078125,6.5263671875t-1.10107421875,6.6865234375q-0.3203125,3.923828125-0.4404296875,7.767578125t-0.1201171875,7.8076171875l0.080078125,3.5234375q0.80078125-1.0009765625,2.2822265625-2.5625t3.203125-3.02294921875t3.443359375-2.50244140625t3.123046875-1.041015625q2.1220703125,0,2.94287109375,1.201171875t0.82080078125,3.1630859375q0,1.8017578125-0.78076171875,3.763671875t-2.0419921875,3.82373046875t-2.86279296875,3.34326171875t-3.1630859375,2.2021484375q2.1220703125,2.642578125,4.34423828125,5.044921875t4.86474609375,4.5244140625l0,0.9208984375q-0.080078125,0.400390625-0.50048828125,0.6005859375t-0.9208984375,0.3203125t-0.98095703125,0.18017578125t-0.80078125,0.06005859375q-1.9619140625,0-3.78369140625-1.1611328125t-3.4033203125-2.8427734375t-2.98291015625-3.5634765625t-2.5625-3.283203125q0.240234375,4.6044921875,0.54052734375,9.18896484375t0.30029296875,9.18896484375q0,0.560546875-0.50048828125,0.94091796875t-1.1611328125,0.58056640625t-1.34130859375,0.2802734375t-1.12109375,0.080078125q-2.3623046875,0-3.34326171875-0.86083984375t-1.66162109375-2.98291015625z M316.87034179687,123.462890625q1.0009765625,0,2.38232421875-0.86083984375t2.86279296875-2.14208984375t2.7626953125-2.70263671875t2.06201171875-2.70263671875t0.78076171875-2.06201171875t-1.0810546875-0.70068359375q-0.400390625,0-1.6416015625,1.1611328125t-2.7626953125,2.8427734375t-3.04296875,3.6435546875t-2.322265625,3.5234375z M341.08076171875,127.70703125q0-2.802734375,0.62060546875-6.6064453125t2.10205078125-7.20703125t3.90380859375-5.78564453125t6.10595703125-2.38232421875q3.443359375,0,5.1650390625,1.98193359375t1.7216796875,5.34521484375q0,2.2021484375-0.82080078125,4.82470703125t-2.34228515625,4.96484375t-3.603515625,3.90380859375t-4.64453125,1.5615234375l-1.041015625-0.080078125q0,1.0810546875,0.3203125,2.90283203125t0.94091796875,3.62353515625t1.6015625,3.1630859375t2.38232421875,1.361328125q2.0419921875,0,3.923828125-1.6416015625t3.5634765625-3.6435546875t3.123046875-3.6435546875t2.642578125-1.6416015625q0.640625,0,1.3212890625,0.2001953125t0.7607421875,1.12109375q0,0.560546875-0.30029296875,0.9208984375t-0.54052734375,0.80078125q-1.2412109375,2.1220703125-2.70263671875,4.0439453125t-3.30322265625,3.4833984375t-4.02392578125,2.46240234375t-4.82470703125,0.90087890625q-3.443359375,0-5.7255859375-1.22119140625t-3.68359375-3.283203125t-2.02197265625-4.7646484375t-0.62060546875-5.66552734375z M348.24775390625,124.6640625l1.12109375,1.0009765625q0.80078125,0.720703125,1.6015625,0.3203125t1.44140625-1.46142578125t1.18115234375-2.62255859375t0.9609375-3.203125t0.62060546875-3.203125t0.2001953125-2.6025390625l0-1.361328125t-0.1201171875-1.44140625t-0.42041015625-1.14111328125t-0.94091796875-0.58056640625q-0.2001953125-0.0400390625-0.3603515625-0.0400390625q-1.361328125,0-2.322265625,1.7216796875q-1.041015625,1.921875-1.681640625,4.66455078125t-0.9208984375,5.62548828125t-0.3603515625,4.32421875z M374.54020507812,117.13671875q0-1.1611328125,0.66064453125-1.521484375t1.66162109375-0.3603515625q1.6416015625,0,2.50244140625,0.62060546875t0.86083984375,2.18212890625q0,1.8818359375,0.2802734375,4.70458984375t0.82080078125,5.4853515625t1.28125,4.58447265625t1.54150390625,1.921875q1.4814453125,0,2.62255859375-2.2822265625t2.001953125-5.60546875t1.4814453125-7.14697265625t0.86083984375-6.82666015625q0.16015625-1.6416015625,0.78076171875-2.38232421875t2.26220703125-0.74072265625q1.8818359375,0,2.74267578125,1.5615234375t1.10107421875,3.84375q0.2001953125,1.9619140625,0.2001953125,4.083984375l0,0.6806640625l0,1.6015625q0,1.521484375,0.0400390625,2.72265625l1.1611328125,24.5439453125l0.16015625,4.083984375q0.080078125,0.560546875,0.1201171875,1.06103515625t0.0400390625,1.06103515625q0,2.2822265625-0.98095703125,2.94287109375t-3.18310546875,0.66064453125q-0.48046875,0-1.22119140625-0.080078125t-1.44140625-0.3203125t-1.201171875-0.66064453125t-0.50048828125-1.06103515625l0.16015625-0.400390625q0.2001953125-2.40234375,0.2001953125-5.044921875l0-0.8408203125q-0.0400390625-3.123046875-0.2001953125-6.326171875t-0.3603515625-6.40625t-0.2001953125-6.166015625q-0.560546875,1.2412109375-1.30126953125,2.5625t-1.7216796875,2.38232421875t-2.22216796875,1.76171875t-2.802734375,0.70068359375q-2.2822265625,0-3.763671875-1.201171875t-2.30224609375-3.123046875t-1.18115234375-4.30419921875t-0.48046875-4.7646484375t-0.16015625-4.54443359375t-0.3203125-3.6435546875z"/><path fill="#" d=""/></svg>
